<mxfile modified="2022-10-30T05:35:18.897Z" host="Electron" agent="5.0 (Windows NT 10.0; Win64; x64) AppleWebKit/537.36 (KHTML, like Gecko) draw.io/20.3.0 Chrome/104.0.5112.114 Electron/20.1.3 Safari/537.36" etag="EaOwEBFpF1-TXy8Jiqyn" compressed="false" version="20.3.0" type="device">
  <diagram id="bMNjmOqLb4WLVtU1CNq-" name="System Context/Domains/Logical Modules/Deadline">
    <mxGraphModel dx="782" dy="1649" grid="1" gridSize="10" guides="1" tooltips="1" connect="1" arrows="1" fold="1" page="1" pageScale="1" pageWidth="850" pageHeight="1100" math="0" shadow="0">
      <root>
        <mxCell id="DeSfIFhLPi3rdZKfYnrr-0" />
        <mxCell id="DeSfIFhLPi3rdZKfYnrr-1" parent="DeSfIFhLPi3rdZKfYnrr-0" />
        <mxCell id="DeSfIFhLPi3rdZKfYnrr-9" value="" style="rounded=1;whiteSpace=wrap;html=1;strokeColor=#000000;fillColor=none;gradientColor=#FAFAFA;fontSize=12;fontColor=#000000;align=center;collapsible=0;container=1;absoluteArcSize=1;recursiveResize=0;dashed=1;" parent="DeSfIFhLPi3rdZKfYnrr-1" vertex="1">
          <mxGeometry x="210" y="680" width="340" height="280" as="geometry" />
        </mxCell>
        <mxCell id="DeSfIFhLPi3rdZKfYnrr-2" value="Distinct Organisations &amp;amp; their Groups" style="rounded=0;whiteSpace=wrap;html=1;strokeColor=#d79b00;fillColor=#ffe6cc;fontSize=12;align=center;" parent="DeSfIFhLPi3rdZKfYnrr-9" vertex="1">
          <mxGeometry x="60" y="70" width="269" height="20" as="geometry" />
        </mxCell>
        <mxCell id="DeSfIFhLPi3rdZKfYnrr-4" value="Authorisation" style="rounded=0;whiteSpace=wrap;html=1;strokeColor=#000000;fillColor=none;gradientColor=#FAFAFA;fontSize=12;fontColor=#000000;align=center;" parent="DeSfIFhLPi3rdZKfYnrr-9" vertex="1">
          <mxGeometry x="60" y="90" width="269" height="20" as="geometry" />
        </mxCell>
        <mxCell id="DeSfIFhLPi3rdZKfYnrr-5" value="Diagnostics &amp;amp; Errors Auditing" style="rounded=0;whiteSpace=wrap;html=1;strokeColor=#000000;fillColor=none;gradientColor=#FAFAFA;fontSize=12;fontColor=#000000;align=center;" parent="DeSfIFhLPi3rdZKfYnrr-9" vertex="1">
          <mxGeometry x="60" y="190" width="269" height="20" as="geometry" />
        </mxCell>
        <mxCell id="DeSfIFhLPi3rdZKfYnrr-6" value="Sessions &amp;amp; Operations tracking" style="rounded=0;whiteSpace=wrap;html=1;strokeColor=#000000;fillColor=none;gradientColor=#FAFAFA;fontSize=12;fontColor=#000000;align=center;" parent="DeSfIFhLPi3rdZKfYnrr-9" vertex="1">
          <mxGeometry x="60" y="150" width="269" height="20" as="geometry" />
        </mxCell>
        <mxCell id="DeSfIFhLPi3rdZKfYnrr-17" value="Metrics &amp;amp; Activity Counting" style="rounded=0;whiteSpace=wrap;html=1;strokeColor=#000000;fillColor=none;gradientColor=#FAFAFA;fontSize=12;fontColor=#000000;align=center;" parent="DeSfIFhLPi3rdZKfYnrr-9" vertex="1">
          <mxGeometry x="60" y="170" width="269" height="20" as="geometry" />
        </mxCell>
        <mxCell id="DeSfIFhLPi3rdZKfYnrr-18" value="Search" style="rounded=0;whiteSpace=wrap;html=1;strokeColor=#000000;fillColor=none;gradientColor=#FAFAFA;fontSize=12;fontColor=#000000;align=center;" parent="DeSfIFhLPi3rdZKfYnrr-9" vertex="1">
          <mxGeometry x="60" y="10" width="269" height="20" as="geometry" />
        </mxCell>
        <mxCell id="DeSfIFhLPi3rdZKfYnrr-7" value="Media &amp;amp; Metadata Management" style="rounded=0;whiteSpace=wrap;html=1;strokeColor=#000000;fillColor=none;gradientColor=#FAFAFA;fontSize=12;fontColor=#000000;align=center;" parent="DeSfIFhLPi3rdZKfYnrr-9" vertex="1">
          <mxGeometry x="60" y="30" width="269" height="20" as="geometry" />
        </mxCell>
        <mxCell id="DeSfIFhLPi3rdZKfYnrr-19" style="edgeStyle=elbowEdgeStyle;rounded=0;orthogonalLoop=1;jettySize=auto;html=1;exitX=0.25;exitY=1;exitDx=0;exitDy=0;startArrow=none;startFill=0;endArrow=none;endFill=0;strokeColor=#000000;strokeWidth=1;fontSize=12;fontColor=#000000;" parent="DeSfIFhLPi3rdZKfYnrr-9" source="DeSfIFhLPi3rdZKfYnrr-18" target="DeSfIFhLPi3rdZKfYnrr-18" edge="1">
          <mxGeometry relative="1" as="geometry" />
        </mxCell>
        <mxCell id="DeSfIFhLPi3rdZKfYnrr-20" value="System Integration" style="rounded=0;whiteSpace=wrap;html=1;strokeColor=#000000;fillColor=none;gradientColor=#FAFAFA;fontSize=12;fontColor=#000000;align=center;" parent="DeSfIFhLPi3rdZKfYnrr-9" vertex="1">
          <mxGeometry x="60" y="210" width="269" height="20" as="geometry" />
        </mxCell>
        <mxCell id="DeSfIFhLPi3rdZKfYnrr-21" value="Status &amp;amp; Notifications&amp;nbsp;" style="rounded=0;whiteSpace=wrap;html=1;strokeColor=#000000;fillColor=none;gradientColor=#FAFAFA;fontSize=12;fontColor=#000000;align=center;" parent="DeSfIFhLPi3rdZKfYnrr-9" vertex="1">
          <mxGeometry x="60" y="230" width="269" height="20" as="geometry" />
        </mxCell>
        <mxCell id="DeSfIFhLPi3rdZKfYnrr-22" value="System Configuration" style="rounded=0;whiteSpace=wrap;html=1;strokeColor=#000000;fillColor=none;gradientColor=#FAFAFA;fontSize=12;fontColor=#000000;align=center;" parent="DeSfIFhLPi3rdZKfYnrr-9" vertex="1">
          <mxGeometry x="60" y="250" width="269" height="20" as="geometry" />
        </mxCell>
        <mxCell id="DeSfIFhLPi3rdZKfYnrr-43" value="Individuals" style="rounded=0;whiteSpace=wrap;html=1;strokeColor=#000000;fillColor=none;gradientColor=#FAFAFA;fontSize=12;fontColor=#000000;align=center;" parent="DeSfIFhLPi3rdZKfYnrr-9" vertex="1">
          <mxGeometry x="60" y="130" width="269" height="20" as="geometry" />
        </mxCell>
        <mxCell id="DeSfIFhLPi3rdZKfYnrr-57" value="Administration&amp;nbsp; of Roles within Groups" style="rounded=0;whiteSpace=wrap;html=1;strokeColor=#000000;fillColor=none;gradientColor=#FAFAFA;fontSize=12;fontColor=#000000;align=center;" parent="DeSfIFhLPi3rdZKfYnrr-9" vertex="1">
          <mxGeometry x="60" y="50" width="269" height="20" as="geometry" />
        </mxCell>
        <mxCell id="DeSfIFhLPi3rdZKfYnrr-59" value="System Roles" style="rounded=0;whiteSpace=wrap;html=1;strokeColor=#000000;fillColor=none;gradientColor=#FAFAFA;fontSize=12;fontColor=#000000;align=center;" parent="DeSfIFhLPi3rdZKfYnrr-9" vertex="1">
          <mxGeometry x="60" y="110" width="269" height="20" as="geometry" />
        </mxCell>
        <mxCell id="DeSfIFhLPi3rdZKfYnrr-78" value="Base System Logical Module&lt;br&gt;(irrespective of business requirements)" style="rounded=0;whiteSpace=wrap;html=1;strokeColor=none;fillColor=#f5f5f5;fontSize=12;fontColor=#333333;align=center;horizontal=0;" parent="DeSfIFhLPi3rdZKfYnrr-9" vertex="1">
          <mxGeometry x="10" y="10" width="40" height="260" as="geometry" />
        </mxCell>
        <mxCell id="DeSfIFhLPi3rdZKfYnrr-23" value="" style="rounded=1;whiteSpace=wrap;html=1;strokeColor=#000000;fillColor=none;gradientColor=#FAFAFA;fontSize=12;fontColor=#000000;align=center;collapsible=0;container=1;absoluteArcSize=1;recursiveResize=0;dashed=1;" parent="DeSfIFhLPi3rdZKfYnrr-1" vertex="1">
          <mxGeometry x="210" y="460" width="340" height="220" as="geometry" />
        </mxCell>
        <mxCell id="DeSfIFhLPi3rdZKfYnrr-13" value="Record Creation/Updating/Logical Deletion" style="rounded=0;whiteSpace=wrap;html=1;strokeColor=#000000;fillColor=none;gradientColor=#FAFAFA;fontSize=12;fontColor=#000000;align=center;" parent="DeSfIFhLPi3rdZKfYnrr-23" vertex="1">
          <mxGeometry x="60" y="190" width="269" height="20" as="geometry" />
        </mxCell>
        <mxCell id="DeSfIFhLPi3rdZKfYnrr-15" value="Media Embedding/Referencing &lt;font style=&quot;font-size: 10px&quot;&gt;(Image, Video, etc.)&lt;/font&gt;" style="rounded=0;whiteSpace=wrap;html=1;strokeColor=#000000;fillColor=none;gradientColor=#FAFAFA;fontSize=12;fontColor=#000000;align=center;" parent="DeSfIFhLPi3rdZKfYnrr-23" vertex="1">
          <mxGeometry x="60" y="70" width="269" height="20" as="geometry" />
        </mxCell>
        <mxCell id="DeSfIFhLPi3rdZKfYnrr-16" value="Schema/Structure&amp;nbsp;&amp;nbsp;Mgmt&amp;nbsp;&lt;font style=&quot;font-size: 10px&quot;&gt;(Synopsis, Objectives,&amp;nbsp; etc.)&lt;/font&gt;" style="rounded=0;whiteSpace=wrap;html=1;strokeColor=#000000;fillColor=none;gradientColor=#FAFAFA;fontSize=12;fontColor=#000000;align=center;" parent="DeSfIFhLPi3rdZKfYnrr-23" vertex="1">
          <mxGeometry x="60" y="110" width="269" height="20" as="geometry" />
        </mxCell>
        <mxCell id="DeSfIFhLPi3rdZKfYnrr-79" value="Resource Management Logical Module&lt;br&gt;(Basic/Generalized)" style="rounded=0;whiteSpace=wrap;html=1;strokeColor=none;fillColor=#f5f5f5;fontSize=12;fontColor=#333333;align=center;horizontal=0;" parent="DeSfIFhLPi3rdZKfYnrr-23" vertex="1">
          <mxGeometry x="10" y="10" width="40" height="200" as="geometry" />
        </mxCell>
        <mxCell id="DeSfIFhLPi3rdZKfYnrr-67" value="Record Status &lt;font style=&quot;font-size: 10px&quot;&gt;(Draft/For Review/Released, etc.)&lt;/font&gt;" style="rounded=0;whiteSpace=wrap;html=1;strokeColor=#000000;fillColor=none;gradientColor=#FAFAFA;fontSize=12;fontColor=#000000;align=center;" parent="DeSfIFhLPi3rdZKfYnrr-23" vertex="1">
          <mxGeometry x="60" y="170" width="269" height="20" as="geometry" />
        </mxCell>
        <mxCell id="DeSfIFhLPi3rdZKfYnrr-93" value="Metadata Management &lt;font style=&quot;font-size: 10px&quot;&gt;(Collaborators, etc.)&lt;/font&gt;&amp;nbsp;" style="rounded=0;whiteSpace=wrap;html=1;strokeColor=#000000;fillColor=none;gradientColor=#FAFAFA;fontSize=12;fontColor=#000000;align=center;" parent="DeSfIFhLPi3rdZKfYnrr-23" vertex="1">
          <mxGeometry x="60" y="150" width="269" height="20" as="geometry" />
        </mxCell>
        <mxCell id="DeSfIFhLPi3rdZKfYnrr-66" value="Versioning&amp;nbsp;Management &lt;font style=&quot;font-size: 10px&quot;&gt;(Merged, Superceded, etc.)&lt;/font&gt;" style="rounded=0;whiteSpace=wrap;html=1;strokeColor=#000000;fillColor=none;gradientColor=#FAFAFA;fontSize=12;fontColor=#000000;align=center;" parent="DeSfIFhLPi3rdZKfYnrr-23" vertex="1">
          <mxGeometry x="60" y="130" width="269" height="20" as="geometry" />
        </mxCell>
        <mxCell id="DeSfIFhLPi3rdZKfYnrr-12" value="Presentation Format&amp;nbsp;Management &lt;font style=&quot;font-size: 10px&quot;&gt;(Headings, etc.)&lt;/font&gt;" style="rounded=0;whiteSpace=wrap;html=1;strokeColor=#000000;fillColor=none;gradientColor=#FAFAFA;fontSize=12;fontColor=#000000;align=center;" parent="DeSfIFhLPi3rdZKfYnrr-23" vertex="1">
          <mxGeometry x="60" y="90" width="269" height="20" as="geometry" />
        </mxCell>
        <mxCell id="DeSfIFhLPi3rdZKfYnrr-14" value="Links &amp;amp; Relationships&amp;nbsp;Mgmt &lt;font style=&quot;font-size: 10px&quot;&gt;(Prev, Next, Related, etc.)&lt;/font&gt;" style="rounded=0;whiteSpace=wrap;html=1;strokeColor=#000000;fillColor=none;gradientColor=#FAFAFA;fontSize=12;fontColor=#000000;align=center;" parent="DeSfIFhLPi3rdZKfYnrr-23" vertex="1">
          <mxGeometry x="60" y="50" width="269" height="20" as="geometry" />
        </mxCell>
        <mxCell id="DeSfIFhLPi3rdZKfYnrr-11" value="Intellectual, Cultural Rights Management" style="rounded=0;whiteSpace=wrap;html=1;strokeColor=#000000;fillColor=none;gradientColor=#FAFAFA;fontSize=12;fontColor=#000000;align=center;" parent="DeSfIFhLPi3rdZKfYnrr-23" vertex="1">
          <mxGeometry x="60" y="10" width="269" height="20" as="geometry" />
        </mxCell>
        <mxCell id="DeSfIFhLPi3rdZKfYnrr-92" value="Change Comparison&lt;font style=&quot;font-size: 10px&quot;&gt; (added, removed, replaced, etc)&lt;/font&gt;" style="rounded=0;whiteSpace=wrap;html=1;strokeColor=#000000;fillColor=none;gradientColor=#FAFAFA;fontSize=12;fontColor=#000000;align=center;" parent="DeSfIFhLPi3rdZKfYnrr-23" vertex="1">
          <mxGeometry x="60" y="30" width="269" height="20" as="geometry" />
        </mxCell>
        <mxCell id="DeSfIFhLPi3rdZKfYnrr-36" value="" style="rounded=1;whiteSpace=wrap;html=1;strokeColor=#000000;fillColor=none;gradientColor=#FAFAFA;fontSize=12;fontColor=#000000;align=center;collapsible=0;container=1;absoluteArcSize=1;recursiveResize=0;dashed=1;" parent="DeSfIFhLPi3rdZKfYnrr-1" vertex="1">
          <mxGeometry x="210" y="380" width="340" height="80" as="geometry" />
        </mxCell>
        <mxCell id="DeSfIFhLPi3rdZKfYnrr-39" value="Default Publishing Workflows" style="rounded=0;whiteSpace=wrap;html=1;strokeColor=#000000;fillColor=none;gradientColor=#FAFAFA;fontSize=12;fontColor=#000000;align=center;" parent="DeSfIFhLPi3rdZKfYnrr-36" vertex="1">
          <mxGeometry x="60" y="10" width="269" height="20" as="geometry" />
        </mxCell>
        <mxCell id="DeSfIFhLPi3rdZKfYnrr-40" value="Resource Roles (Contributor, Reviewer, etc.)" style="rounded=0;whiteSpace=wrap;html=1;strokeColor=#000000;fillColor=none;gradientColor=#FAFAFA;fontSize=12;fontColor=#000000;align=center;" parent="DeSfIFhLPi3rdZKfYnrr-36" vertex="1">
          <mxGeometry x="60" y="30" width="269" height="20" as="geometry" />
        </mxCell>
        <mxCell id="DeSfIFhLPi3rdZKfYnrr-80" value="&lt;font style=&quot;font-size: 10px ; line-height: 100%&quot;&gt;Resource Collaboration Logical Module&lt;/font&gt;" style="rounded=0;whiteSpace=wrap;html=1;strokeColor=none;fillColor=#f5f5f5;fontSize=12;fontColor=#333333;align=center;horizontal=0;" parent="DeSfIFhLPi3rdZKfYnrr-36" vertex="1">
          <mxGeometry x="10" y="10" width="40" height="60" as="geometry" />
        </mxCell>
        <mxCell id="DeSfIFhLPi3rdZKfYnrr-61" value="" style="rounded=1;whiteSpace=wrap;html=1;strokeColor=#000000;fillColor=none;gradientColor=#FAFAFA;fontSize=12;fontColor=#000000;align=center;collapsible=0;container=1;absoluteArcSize=1;recursiveResize=0;dashed=1;rotation=90;" parent="DeSfIFhLPi3rdZKfYnrr-1" vertex="1">
          <mxGeometry x="440" y="310" width="280" height="60" as="geometry" />
        </mxCell>
        <mxCell id="DeSfIFhLPi3rdZKfYnrr-82" value="Resource Feedback Mgmt" style="rounded=0;whiteSpace=wrap;html=1;strokeColor=none;fillColor=#f5f5f5;fontSize=12;fontColor=#333333;align=center;horizontal=0;rotation=90;" parent="DeSfIFhLPi3rdZKfYnrr-61" vertex="1">
          <mxGeometry x="120" y="-110" width="40" height="50" as="geometry" />
        </mxCell>
        <mxCell id="DeSfIFhLPi3rdZKfYnrr-72" value="Public Consumer Feedback" style="rounded=0;whiteSpace=wrap;html=1;strokeColor=#000000;fillColor=none;gradientColor=#FAFAFA;fontSize=12;fontColor=#000000;align=center;rotation=-90;" parent="DeSfIFhLPi3rdZKfYnrr-61" vertex="1">
          <mxGeometry x="31.369999999999997" y="41.370000000000005" width="217.25" height="20" as="geometry" />
        </mxCell>
        <mxCell id="DeSfIFhLPi3rdZKfYnrr-68" value="" style="rounded=1;whiteSpace=wrap;html=1;strokeColor=#000000;fillColor=none;gradientColor=#FAFAFA;fontSize=12;fontColor=#000000;align=center;collapsible=0;container=1;absoluteArcSize=1;recursiveResize=0;dashed=1;" parent="DeSfIFhLPi3rdZKfYnrr-1" vertex="1">
          <mxGeometry x="210" y="280" width="340" height="100" as="geometry" />
        </mxCell>
        <mxCell id="DeSfIFhLPi3rdZKfYnrr-62" value="Cloning" style="rounded=0;whiteSpace=wrap;html=1;strokeColor=#000000;fillColor=none;gradientColor=#FAFAFA;fontSize=12;fontColor=#000000;align=center;" parent="DeSfIFhLPi3rdZKfYnrr-68" vertex="1">
          <mxGeometry x="60" y="30" width="269" height="20" as="geometry" />
        </mxCell>
        <mxCell id="DeSfIFhLPi3rdZKfYnrr-81" value="Organisation Customized Publishing Workflows" style="rounded=0;whiteSpace=wrap;html=1;strokeColor=#000000;fillColor=none;gradientColor=#FAFAFA;fontSize=12;fontColor=#000000;align=center;" parent="DeSfIFhLPi3rdZKfYnrr-68" vertex="1">
          <mxGeometry x="60" y="10" width="269" height="20" as="geometry" />
        </mxCell>
        <mxCell id="DeSfIFhLPi3rdZKfYnrr-83" value="Private Personalization" style="rounded=0;whiteSpace=wrap;html=1;strokeColor=#d79b00;fillColor=#ffe6cc;fontSize=12;align=center;horizontal=0;" parent="DeSfIFhLPi3rdZKfYnrr-68" vertex="1">
          <mxGeometry x="10" y="10" width="40" height="80" as="geometry" />
        </mxCell>
        <mxCell id="DeSfIFhLPi3rdZKfYnrr-84" value="" style="rounded=1;whiteSpace=wrap;html=1;strokeColor=#000000;fillColor=none;gradientColor=#FAFAFA;fontSize=12;fontColor=#000000;align=center;collapsible=0;container=1;absoluteArcSize=1;recursiveResize=0;dashed=1;" parent="DeSfIFhLPi3rdZKfYnrr-1" vertex="1">
          <mxGeometry x="210" y="200" width="340" height="80" as="geometry" />
        </mxCell>
        <mxCell id="DeSfIFhLPi3rdZKfYnrr-86" value="Digital Endorsement Guarantees" style="rounded=0;whiteSpace=wrap;html=1;strokeColor=#000000;fillColor=none;gradientColor=#FAFAFA;fontSize=12;fontColor=#000000;align=center;" parent="DeSfIFhLPi3rdZKfYnrr-84" vertex="1">
          <mxGeometry x="60" y="10" width="269" height="20" as="geometry" />
        </mxCell>
        <mxCell id="DeSfIFhLPi3rdZKfYnrr-87" value="Endorsement by Organisations" style="rounded=0;whiteSpace=wrap;html=1;strokeColor=#000000;fillColor=none;gradientColor=#FAFAFA;fontSize=12;fontColor=#000000;align=center;" parent="DeSfIFhLPi3rdZKfYnrr-84" vertex="1">
          <mxGeometry x="60" y="30" width="269" height="20" as="geometry" />
        </mxCell>
        <mxCell id="DeSfIFhLPi3rdZKfYnrr-89" value="External&lt;br&gt;Contribution" style="rounded=0;whiteSpace=wrap;html=1;strokeColor=#d79b00;fillColor=#ffe6cc;fontSize=12;align=center;horizontal=0;" parent="DeSfIFhLPi3rdZKfYnrr-84" vertex="1">
          <mxGeometry x="10" y="10" width="40" height="60" as="geometry" />
        </mxCell>
        <mxCell id="DeSfIFhLPi3rdZKfYnrr-94" value="Direction of Development" style="shape=flexArrow;endArrow=classic;html=1;strokeColor=#6c8ebf;strokeWidth=1;fontSize=12;fontColor=#000000;horizontal=0;fillColor=#dae8fc;gradientColor=#ffffff;gradientDirection=north;fontStyle=1" parent="DeSfIFhLPi3rdZKfYnrr-1" edge="1">
          <mxGeometry x="0.1579" y="20" width="50" height="50" relative="1" as="geometry">
            <mxPoint x="140" y="960" as="sourcePoint" />
            <mxPoint x="140" y="200" as="targetPoint" />
            <mxPoint as="offset" />
          </mxGeometry>
        </mxCell>
        <mxCell id="DeSfIFhLPi3rdZKfYnrr-95" value="" style="endArrow=classic;html=1;strokeColor=#b85450;strokeWidth=3;fontSize=12;fontColor=#000000;fillColor=#f8cecc;labelBackgroundColor=none;" parent="DeSfIFhLPi3rdZKfYnrr-1" edge="1">
          <mxGeometry x="-0.0526" y="-20" width="50" height="50" relative="1" as="geometry">
            <mxPoint x="660" y="534.5" as="sourcePoint" />
            <mxPoint x="560" y="534.5" as="targetPoint" />
            <mxPoint as="offset" />
          </mxGeometry>
        </mxCell>
        <mxCell id="_AO1JoDrV_Ok9SQplEva-0" value="Technology Domain" style="rounded=0;whiteSpace=wrap;html=1;strokeColor=none;fillColor=#f5f5f5;fontSize=12;fontColor=#333333;align=center;horizontal=0;fontStyle=1" parent="DeSfIFhLPi3rdZKfYnrr-1" vertex="1">
          <mxGeometry x="160" y="690" width="40" height="260" as="geometry" />
        </mxCell>
        <mxCell id="_AO1JoDrV_Ok9SQplEva-1" value="Digital Information Domain" style="rounded=0;whiteSpace=wrap;html=1;strokeColor=none;fillColor=#f5f5f5;fontSize=12;fontColor=#333333;align=center;horizontal=0;fontStyle=1" parent="DeSfIFhLPi3rdZKfYnrr-1" vertex="1">
          <mxGeometry x="160" y="390" width="40" height="290" as="geometry" />
        </mxCell>
        <mxCell id="_AO1JoDrV_Ok9SQplEva-2" value="Business Domain" style="rounded=0;whiteSpace=wrap;html=1;strokeColor=none;fillColor=#f5f5f5;fontSize=12;fontColor=#333333;align=center;horizontal=0;fontStyle=1" parent="DeSfIFhLPi3rdZKfYnrr-1" vertex="1">
          <mxGeometry x="160" y="200" width="40" height="180" as="geometry" />
        </mxCell>
        <mxCell id="_AO1JoDrV_Ok9SQplEva-6" value="Direction of Development" style="shape=flexArrow;endArrow=classic;html=1;strokeColor=#6c8ebf;strokeWidth=1;fontSize=12;fontColor=#000000;horizontal=0;fillColor=#dae8fc;gradientColor=#ffffff;gradientDirection=north;fontStyle=1" parent="DeSfIFhLPi3rdZKfYnrr-1" edge="1">
          <mxGeometry x="0.1579" y="20" width="50" height="50" relative="1" as="geometry">
            <mxPoint x="700" y="960" as="sourcePoint" />
            <mxPoint x="700" y="200" as="targetPoint" />
            <mxPoint as="offset" />
          </mxGeometry>
        </mxCell>
        <mxCell id="_AO1JoDrV_Ok9SQplEva-11" style="edgeStyle=elbowEdgeStyle;rounded=0;orthogonalLoop=1;jettySize=auto;html=1;entryX=1;entryY=0.5;entryDx=0;entryDy=0;labelBackgroundColor=none;startArrow=none;startFill=0;endArrow=classic;endFill=1;strokeColor=#000000;strokeWidth=1;gradientColor=#ffffff;fontSize=12;fontColor=#000000;" parent="DeSfIFhLPi3rdZKfYnrr-1" source="_AO1JoDrV_Ok9SQplEva-10" target="DeSfIFhLPi3rdZKfYnrr-2" edge="1">
          <mxGeometry relative="1" as="geometry" />
        </mxCell>
        <mxCell id="_AO1JoDrV_Ok9SQplEva-10" value="Note:&lt;br&gt;Personalization of resources, private distribution, and public contribution relies on distinct organisation specific management of groups and roles of individuals within." style="shape=note;whiteSpace=wrap;html=1;size=14;verticalAlign=top;align=left;spacingTop=-6;strokeColor=#000000;fillColor=none;gradientColor=#FAFAFA;fontSize=12;fontColor=#000000;opacity=66;" parent="DeSfIFhLPi3rdZKfYnrr-1" vertex="1">
          <mxGeometry x="570" y="700" width="90" height="220" as="geometry" />
        </mxCell>
        <mxCell id="_AO1JoDrV_Ok9SQplEva-12" value="&lt;font style=&quot;font-size: 12px&quot;&gt;&lt;span style=&quot;text-align: center&quot;&gt;Sufficient&amp;nbsp; system in place&amp;nbsp;&lt;/span&gt;&lt;br style=&quot;text-align: center&quot;&gt;&lt;span style=&quot;text-align: center&quot;&gt;to migrate in&amp;nbsp;&lt;i&gt;some&amp;nbsp;&lt;/i&gt;&lt;/span&gt;&lt;br style=&quot;text-align: center&quot;&gt;&lt;span style=&quot;text-align: center&quot;&gt;data (using manual verification processes).&lt;/span&gt;&lt;/font&gt;" style="shape=note;whiteSpace=wrap;html=1;size=14;verticalAlign=top;align=left;spacingTop=-6;strokeColor=#000000;fillColor=none;gradientColor=#FAFAFA;fontSize=12;fontColor=#000000;opacity=66;" parent="DeSfIFhLPi3rdZKfYnrr-1" vertex="1">
          <mxGeometry x="570" y="540" width="90" height="120" as="geometry" />
        </mxCell>
        <mxCell id="DeSfIFhLPi3rdZKfYnrr-65" value="Change Impact Notifications" style="rounded=0;whiteSpace=wrap;html=1;strokeColor=#000000;fillColor=none;gradientColor=#FAFAFA;fontSize=12;fontColor=#000000;align=center;" parent="DeSfIFhLPi3rdZKfYnrr-1" vertex="1">
          <mxGeometry x="2670" y="-630" width="269" height="20" as="geometry" />
        </mxCell>
      </root>
    </mxGraphModel>
  </diagram>
</mxfile>
